<svg xmlns="http://www.w3.org/2000/svg" width="63.883" height="64" viewBox="0 0 63.883 64">
  <g id="Group_329" data-name="Group 329" transform="translate(-419 -482)">
    <path id="Path_56" data-name="Path 56" d="M89.606,18.6H51.276A12.788,12.788,0,0,0,38.5,31.4V69.8A12.788,12.788,0,0,0,51.276,82.6h38.33a12.788,12.788,0,0,0,12.776-12.8V31.4A12.788,12.788,0,0,0,89.606,18.6Z" transform="translate(380.5 463.404)" fill="#87a80d"/>
    <g id="_56772d572f662f8713dad21b9f9c457d" data-name="56772d572f662f8713dad21b9f9c457d" transform="translate(434.332 497.315)">
      <path id="Path_143" data-name="Path 143" d="M31.7,7.777a.974.974,0,0,0,.984-.961V3.969a.977.977,0,0,0-.984-.964h-2.21V2.231A1.547,1.547,0,0,0,27.945.684H2.2A1.547,1.547,0,0,0,.652,2.231V31.138A1.549,1.549,0,0,0,2.2,32.684H27.945a1.547,1.547,0,0,0,1.546-1.546v-.8H31.7a.974.974,0,0,0,.984-.961v-2.85a.977.977,0,0,0-.984-.964h-2.21V22.813H31.7a.974.974,0,0,0,.984-.961V19.005a.977.977,0,0,0-.984-.964h-2.21V15.3H31.7a.974.974,0,0,0,.984-.961v-2.85a.974.974,0,0,0-.984-.961h-2.21V7.777Zm-9.061,15.5a.945.945,0,0,1-.866,1.007H8.356a.945.945,0,0,1-.866-1.007V19.133a1.017,1.017,0,0,1,.543-.935l5.253-2.445a4.634,4.634,0,0,1-2.1-4c0-2.491,1.736-4.507,3.873-4.507s3.877,2.017,3.877,4.507A4.663,4.663,0,0,1,16.9,15.723L22.1,18.2a1.025,1.025,0,0,1,.536.935v4.138Z" transform="translate(0)" fill="#fff"/>
    </g>
  </g>
</svg>
