<svg xmlns="http://www.w3.org/2000/svg" width="46.04" height="46.124" viewBox="0 0 46.04 46.124">
  <g id="Group_308" data-name="Group 308" transform="translate(-1002 -1747)">
    <path id="Path_110" data-name="Path 110" d="M75.332,18.6H47.708A9.216,9.216,0,0,0,38.5,27.821V55.5a9.216,9.216,0,0,0,9.208,9.225H75.332A9.216,9.216,0,0,0,84.54,55.5V27.821A9.216,9.216,0,0,0,75.332,18.6Z" transform="translate(963.5 1728.404)" fill="#87a80d"/>
    <path id="noun-bank-5395887" d="M36.115,28.572h-.327V25.63A2.291,2.291,0,0,0,33.5,23.342h-.327V16.15H33.5a2.291,2.291,0,0,0,2.288-2.288V9.516a2.4,2.4,0,0,0-1.439-2.124L22.58,2.685a2.457,2.457,0,0,0-1.7,0L9.115,7.393a2.4,2.4,0,0,0-1.44,2.123v4.345A2.291,2.291,0,0,0,9.963,16.15h.327v7.192H9.963A2.291,2.291,0,0,0,7.675,25.63v2.942H7.348a.981.981,0,0,0,0,1.961H36.114a.981.981,0,0,0,0-1.961ZM9.963,14.189a.331.331,0,0,1-.327-.327V9.516a.48.48,0,0,1,.206-.3L21.6,4.508a.649.649,0,0,1,.255,0L33.622,9.214a.482.482,0,0,1,.2.3v4.345a.331.331,0,0,1-.327.327ZM31.211,16.15v7.192H27.943V16.15Zm-5.23,0v7.192H22.712V16.15Zm-5.23,0v7.192H17.482V16.15Zm-5.23,0v7.192H12.252V16.15ZM33.826,28.572H9.636V25.63a.328.328,0,0,1,.327-.327H33.5a.328.328,0,0,1,.327.327ZM21.731,7a2.942,2.942,0,1,0,2.942,2.942A2.946,2.946,0,0,0,21.731,7Zm0,3.923a.981.981,0,1,1,.981-.981A.983.983,0,0,1,21.731,10.919Z" transform="translate(1003.633 1753.467)" fill="#fff" stroke="#87a80d" stroke-width="0.3"/>
  </g>
</svg>
