<svg xmlns="http://www.w3.org/2000/svg" width="17.448" height="17.448" viewBox="0 0 17.448 17.448">
  <g id="Group_98" data-name="Group 98" transform="translate(-986 -3473.552)">
    <path id="Icon_awesome-linkedin" data-name="Icon awesome-linkedin" d="M14.252,2.25H1.093A1.1,1.1,0,0,0,0,3.357V16.491A1.1,1.1,0,0,0,1.093,17.6H14.252a1.1,1.1,0,0,0,1.1-1.107V3.357A1.1,1.1,0,0,0,14.252,2.25Z" transform="translate(987.05 3472.352)" fill="#fff"/>
    <path id="Icon_awesome-linkedin-2" data-name="Icon awesome-linkedin" d="M16.2,2.25H1.242A1.252,1.252,0,0,0,0,3.508V18.44A1.252,1.252,0,0,0,1.242,19.7H16.2a1.255,1.255,0,0,0,1.246-1.258V3.508A1.255,1.255,0,0,0,16.2,2.25ZM5.273,17.206H2.687V8.879h2.59v8.327ZM3.98,7.742a1.5,1.5,0,1,1,1.5-1.5A1.5,1.5,0,0,1,3.98,7.742Zm10.987,9.464H12.381V13.155c0-.966-.019-2.208-1.344-2.208-1.348,0-1.554,1.052-1.554,2.138v4.121H6.9V8.879H9.379v1.137h.035a2.724,2.724,0,0,1,2.45-1.344c2.617,0,3.1,1.725,3.1,3.969Z" transform="translate(986 3471.302)" fill="#026ba0"/>
  </g>
</svg>
