<svg xmlns="http://www.w3.org/2000/svg" width="46.04" height="46.124" viewBox="0 0 46.04 46.124">
  <g id="Group_307" data-name="Group 307" transform="translate(-711 -1747)">
    <path id="Path_108" data-name="Path 108" d="M75.332,18.6H47.708A9.216,9.216,0,0,0,38.5,27.821V55.5a9.216,9.216,0,0,0,9.208,9.225H75.332A9.216,9.216,0,0,0,84.54,55.5V27.821A9.216,9.216,0,0,0,75.332,18.6Z" transform="translate(672.5 1728.404)" fill="#87a80d"/>
    <path id="Path_129" data-name="Path 129" d="M-3207.544,22.854a14.3,14.3,0,0,1-.281-8.292l2.028-7.791a8.294,8.294,0,0,0-.879-6.331,8.3,8.3,0,0,0-5.1-3.854,8.36,8.36,0,0,0-10.185,5.977l-2.028,7.79c-1.571,6.034-4.447,9.673-7.515,9.673a3.969,3.969,0,0,1-1.007-.131.657.657,0,0,1-.471-.8.658.658,0,0,1,.8-.472c2.579.671,5.423-2.865,6.917-8.6l2.028-7.79a9.679,9.679,0,0,1,11.79-6.918,9.6,9.6,0,0,1,5.9,4.462,9.6,9.6,0,0,1,1.017,7.328l-2.028,7.791a12.972,12.972,0,0,0,.248,7.521C-3205.6,24.414-3206.679,25.3-3207.544,22.854Zm-9.861-4.634a7.049,7.049,0,0,1-4.335-3.278,7.054,7.054,0,0,1-.747-5.383l1.451-5.572a7.127,7.127,0,0,1,1.576-2.944.658.658,0,0,1,.929-.051.657.657,0,0,1,.051.928,5.736,5.736,0,0,0-1.283,2.4l-1.451,5.573a5.749,5.749,0,0,0,.609,4.386,5.751,5.751,0,0,0,3.532,2.671,5.776,5.776,0,0,0,3.048-.035.658.658,0,0,1,.814.451.659.659,0,0,1-.451.814,7.062,7.062,0,0,1-1.948.273A7.125,7.125,0,0,1-3217.4,18.22Zm.76-2.917a4.984,4.984,0,0,1-3.063-2.316,4.986,4.986,0,0,1-.527-3.8l.981-3.771a5.025,5.025,0,0,1,6.12-3.591,4.967,4.967,0,0,1,2.691,1.769.658.658,0,0,1-.115.923.659.659,0,0,1-.924-.114,3.669,3.669,0,0,0-1.985-1.3,3.706,3.706,0,0,0-4.515,2.65l-.981,3.771a3.678,3.678,0,0,0,.389,2.806,3.68,3.68,0,0,0,2.26,1.709,3.684,3.684,0,0,0,2.806-.39,3.683,3.683,0,0,0,1.709-2.26l.981-3.771a.657.657,0,0,1,.8-.471h0a.657.657,0,0,1,.471.8l-.982,3.771a4.984,4.984,0,0,1-2.316,3.063,4.988,4.988,0,0,1-2.531.692A5.043,5.043,0,0,1-3216.645,15.3Zm7.1-1.694a.658.658,0,0,1-.471-.8l1.452-5.573a5.755,5.755,0,0,0-.608-4.387,5.745,5.745,0,0,0-3.532-2.67,5.75,5.75,0,0,0-1.7-.184.659.659,0,0,1-.684-.631.658.658,0,0,1,.631-.684,7.106,7.106,0,0,1,2.081.226,7.049,7.049,0,0,1,4.335,3.277,7.052,7.052,0,0,1,.747,5.384l-1.451,5.572a.659.659,0,0,1-.636.492A.686.686,0,0,1-3209.547,13.609Zm-6.3-1.364a2.837,2.837,0,0,1-2.028-3.457l.49-1.882a2.833,2.833,0,0,1,2.741-2.12,2.807,2.807,0,0,1,.716.092,2.813,2.813,0,0,1,1.73,1.308,2.821,2.821,0,0,1,.3,2.149l-.491,1.882a2.833,2.833,0,0,1-2.74,2.12A2.847,2.847,0,0,1-3215.849,12.245Zm-.265-5.007-.49,1.882a1.52,1.52,0,0,0,1.087,1.852,1.545,1.545,0,0,0,.384.049,1.519,1.519,0,0,0,1.468-1.137l.49-1.881a1.514,1.514,0,0,0-.16-1.152,1.511,1.511,0,0,0-.927-.7,1.52,1.52,0,0,0-.385-.049A1.516,1.516,0,0,0-3216.114,7.238Z" transform="translate(3949.5 1760.5)" fill="#fff" stroke="#fff" stroke-width="0.068"/>
  </g>
</svg>
