<svg xmlns="http://www.w3.org/2000/svg" width="46.04" height="46.124" viewBox="0 0 46.04 46.124">
  <g id="Group_303" data-name="Group 303" transform="translate(-129 -1747)">
    <path id="Path_56" data-name="Path 56" d="M75.332,18.6H47.708A9.216,9.216,0,0,0,38.5,27.821V55.5a9.216,9.216,0,0,0,9.208,9.225H75.332A9.216,9.216,0,0,0,84.54,55.5V27.821A9.216,9.216,0,0,0,75.332,18.6Z" transform="translate(90.5 1728.404)" fill="#87a80d"/>
    <path id="noun-science-4199665" d="M22.609,4.068a2.37,2.37,0,0,0-.536,4.68v6.414l-7.587,12.12a3.144,3.144,0,0,0,2.651,4.778v.006H35.053v-.006A3.144,3.144,0,0,0,37.7,27.283h0L30.117,15.162V8.751a2.371,2.371,0,0,0-.529-4.684Zm0,1.649h6.978a.726.726,0,1,1,0,1.452H28.4a.823.823,0,0,0-.352,1.568c.025.012.05.023.076.032h0a.825.825,0,0,0,.159.039.762.762,0,0,0,.082.008h.106V15.4a.824.824,0,0,0,.122.439l4.545,7.255c-2.588.5-5.54.537-7.815-.777a11.7,11.7,0,0,0-4.839-1.507l3.112-4.971a.821.821,0,0,0,.129-.439V8.816h2.043a.825.825,0,0,0,.425-1.53h0a.826.826,0,0,0-.423-.117H22.609a.726.726,0,1,1,0-1.452Zm-3.135,16.7a10.184,10.184,0,0,1,5.02,1.33c3.015,1.741,6.638,1.485,9.57.827l2.247,3.587a1.451,1.451,0,0,1-1.253,2.261H17.132a1.45,1.45,0,0,1-1.251-2.261Z" transform="translate(125.481 1752.432)" fill="#fff" stroke="#fff" stroke-width="0.5"/>
  </g>
</svg>
