<svg xmlns="http://www.w3.org/2000/svg" width="63.883" height="64" viewBox="0 0 63.883 64">
  <g id="Group_328" data-name="Group 328" transform="translate(-186 -482)">
    <path id="Path_56" data-name="Path 56" d="M89.606,18.6H51.276A12.788,12.788,0,0,0,38.5,31.4V69.8A12.788,12.788,0,0,0,51.276,82.6h38.33a12.788,12.788,0,0,0,12.776-12.8V31.4A12.788,12.788,0,0,0,89.606,18.6Z" transform="translate(147.5 463.404)" fill="#87a80d"/>
    <g id="scale-icon" transform="translate(199 498)">
      <path id="Path_142" data-name="Path 142" d="M20.437,6.513V29.172h11.1a.213.213,0,0,1,.212.215v2.4a.215.215,0,0,1-.212.215H7.115a.215.215,0,0,1-.215-.215v-2.4a.215.215,0,0,1,.215-.215h11.1V6.523a3.367,3.367,0,0,1-2.068-2.065H9.127V5.526a.212.212,0,0,1-.212.212h-1.8A.215.215,0,0,1,6.9,5.526V4.458H5.115a.234.234,0,0,1-.249-.212v-1.8a.235.235,0,0,1,.249-.215H16.151a3.353,3.353,0,0,1,6.317,0H33.536a.235.235,0,0,1,.249.215v1.8a.232.232,0,0,1-.249.212H31.523V5.526a.212.212,0,0,1-.212.212h-1.8a.215.215,0,0,1-.215-.212V4.458H22.478a3.37,3.37,0,0,1-2.04,2.056Zm10.606.433L38.18,19.556a.654.654,0,0,1,.087.343h.006v.047c0,3-3.535,5.439-7.9,5.439-4.314,0-7.819-2.383-7.893-5.342a.67.67,0,0,1,.1-.533l7.3-12.594a.663.663,0,0,1,.906-.243.7.7,0,0,1,.259.274Zm.028,2.744v9.532h5.4l-5.4-9.532ZM29.8,19.219V9.706l-5.517,9.513ZM8.579,6.946l7.136,12.609a.654.654,0,0,1,.087.343h.006v.047c0,3-3.535,5.439-7.9,5.439C3.6,25.384.093,23,.019,20.042A.61.61,0,0,1,0,19.886a.671.671,0,0,1,.115-.374l7.3-12.594a.663.663,0,0,1,.906-.243.674.674,0,0,1,.259.271Zm.028,2.744v9.532H14l-5.4-9.532ZM7.333,19.219V9.706L1.819,19.219ZM19.31,1.891a1.461,1.461,0,1,1-1.461,1.461A1.461,1.461,0,0,1,19.31,1.891Z" transform="translate(0)" fill="#fff" fill-rule="evenodd"/>
    </g>
  </g>
</svg>
