<svg xmlns="http://www.w3.org/2000/svg" width="46.04" height="46.124" viewBox="0 0 46.04 46.124">
  <g id="Group_304" data-name="Group 304" transform="translate(-420 -1747)">
    <path id="Path_106" data-name="Path 106" d="M75.332,18.6H47.708A9.216,9.216,0,0,0,38.5,27.821V55.5a9.216,9.216,0,0,0,9.208,9.225H75.332A9.216,9.216,0,0,0,84.54,55.5V27.821A9.216,9.216,0,0,0,75.332,18.6Z" transform="translate(381.5 1728.404)" fill="#87a80d"/>
    <path id="Path_132" data-name="Path 132" d="M37.261,14.449H35.716a9.251,9.251,0,0,0-.367-.886l1.092-1.092a1.014,1.014,0,0,0,0-1.435l-2.87-2.87a1.014,1.014,0,0,0-1.435,0L31.044,9.259a9.14,9.14,0,0,0-.886-.367V7.347a1.015,1.015,0,0,0-1.015-1.015H28.129A3.044,3.044,0,1,0,24.07,9.189V27.64a2.031,2.031,0,0,1-2.029,2.029H19a2.031,2.031,0,0,1-2.029-2.029v-.117a4.9,4.9,0,0,0,3.752-3.6l1.291-5.164a1.042,1.042,0,0,0,.03-.246A3.047,3.047,0,0,0,19,15.464H17.983a1.015,1.015,0,0,0,0,2.029H19a1.015,1.015,0,0,1,1.009.911l-1.255,5.022a2.884,2.884,0,0,1-5.6,0L11.9,18.4a1.015,1.015,0,0,1,1.009-.91h1.015a1.015,1.015,0,0,0,0-2.029H12.91a3.047,3.047,0,0,0-3.044,3.044,1.039,1.039,0,0,0,.03.246l1.291,5.164a4.9,4.9,0,0,0,3.752,3.6v.117A4.063,4.063,0,0,0,19,31.7h3.044a4.055,4.055,0,0,0,3.914-3.044h3.188a1.015,1.015,0,0,0,1.015-1.015V26.095a9.253,9.253,0,0,0,.886-.367l1.092,1.092a1.014,1.014,0,0,0,1.435,0l2.87-2.87a1.014,1.014,0,0,0,0-1.435l-1.092-1.092a9.141,9.141,0,0,0,.367-.886h1.545a1.015,1.015,0,0,0,1.015-1.015V15.464a1.015,1.015,0,0,0-1.015-1.015ZM25.085,5.318A1.015,1.015,0,1,1,24.07,6.332,1.016,1.016,0,0,1,25.085,5.318ZM26.1,14.647a3.045,3.045,0,1,1,0,5.693Zm10.146,3.861H34.965a1.015,1.015,0,0,0-.982.761,7.058,7.058,0,0,1-.756,1.826,1.014,1.014,0,0,0,.156,1.233l.905.905-1.435,1.435-.905-.905a1.017,1.017,0,0,0-1.233-.156,7.057,7.057,0,0,1-1.826.756,1.014,1.014,0,0,0-.761.982v1.281H26.1V22.453a5.073,5.073,0,1,0,0-9.92V9.189a3.031,3.031,0,0,0,1.237-.828h.792V9.643a1.015,1.015,0,0,0,.761.982,7.058,7.058,0,0,1,1.826.756,1.017,1.017,0,0,0,1.233-.156l.905-.905,1.435,1.435-.905.905a1.014,1.014,0,0,0-.156,1.233,7.057,7.057,0,0,1,.756,1.826,1.015,1.015,0,0,0,.982.761h1.281Z" transform="translate(418.634 1752.211)" fill="#fff" stroke="#87a80d" stroke-width="0.5"/>
  </g>
</svg>
