<svg xmlns="http://www.w3.org/2000/svg" width="46.04" height="46.124" viewBox="0 0 46.04 46.124">
  <g id="Group_305" data-name="Group 305" transform="translate(-420 -1853)">
    <path id="Path_112" data-name="Path 112" d="M75.332,18.6H47.708A9.216,9.216,0,0,0,38.5,27.821V55.5a9.216,9.216,0,0,0,9.208,9.225H75.332A9.216,9.216,0,0,0,84.54,55.5V27.821A9.216,9.216,0,0,0,75.332,18.6Z" transform="translate(381.5 1834.404)" fill="#87a80d"/>
    <path id="Path_131" data-name="Path 131" d="M33.768,15.689a4.241,4.241,0,0,0-1.089,8.333V25.3a5.855,5.855,0,0,1-11.71,0V19.743a8.182,8.182,0,0,0,7.019-8.107v-5.1a1.125,1.125,0,0,0-1.126-1.126h-3.64V7.657h2.515v3.978a5.93,5.93,0,0,1-11.823,0V7.657h2.515V5.4H12.787a1.125,1.125,0,0,0-1.126,1.126v5.1a8.182,8.182,0,0,0,7.056,8.107V25.3a8.107,8.107,0,0,0,16.215,0V24.022a4.241,4.241,0,0,0-1.163-8.332Zm0,6.231a1.989,1.989,0,1,1,1.406-.583,1.989,1.989,0,0,1-1.406.583Z" transform="translate(418.339 1856.595)" fill="#fff"/>
  </g>
</svg>
