<svg xmlns="http://www.w3.org/2000/svg" width="46.04" height="46.124" viewBox="0 0 46.04 46.124">
  <g id="Group_306" data-name="Group 306" transform="translate(-711 -1853)">
    <path id="Path_113" data-name="Path 113" d="M75.332,18.6H47.708A9.216,9.216,0,0,0,38.5,27.821V55.5a9.216,9.216,0,0,0,9.208,9.225H75.332A9.216,9.216,0,0,0,84.54,55.5V27.821A9.216,9.216,0,0,0,75.332,18.6Z" transform="translate(672.5 1834.404)" fill="#87a80d"/>
    <path id="Path_133" data-name="Path 133" d="M-3214.777,23a7.426,7.426,0,0,1-4.01-1.172,7.533,7.533,0,0,1-2.708-3.038h-9.273a2.22,2.22,0,0,1-1.571-.654,2.2,2.2,0,0,1-.661-1.571V-2.776a2.2,2.2,0,0,1,.661-1.571A2.22,2.22,0,0,1-3230.768-5h16.345a2.22,2.22,0,0,1,1.571.654,2.2,2.2,0,0,1,.661,1.571V8.516a7.488,7.488,0,0,1,3.517,2.693,7.4,7.4,0,0,1,1.377,4.313A7.487,7.487,0,0,1-3214.777,23Zm-3.266-8.965h0l-1.319,1.32,3.551,3.551,5.619-5.617-1.318-1.319-4.3,4.3-2.232-2.233Zm-12.725-17.165a.342.342,0,0,0-.368.355V16.566a.342.342,0,0,0,.368.355h8.646a7.491,7.491,0,0,1-.136-1.4,7.489,7.489,0,0,1,3.217-6.136l2.018-1a7.447,7.447,0,0,1,2.247-.346c.23,0,.466.012.722.036V-2.776a.342.342,0,0,0-.368-.354Zm14.652,9.281h-12.959v-2h12.959v2Zm0-4.235h-12.959v-2h12.959v2Z" transform="translate(3956.168 1869)" fill="#fff"/>
  </g>
</svg>
