<svg xmlns="http://www.w3.org/2000/svg" width="63.883" height="64" viewBox="0 0 63.883 64">
  <g id="Group_330" data-name="Group 330" transform="translate(-651 -482)">
    <path id="Path_56" data-name="Path 56" d="M89.606,18.6H51.276A12.788,12.788,0,0,0,38.5,31.4V69.8A12.788,12.788,0,0,0,51.276,82.6h38.33a12.788,12.788,0,0,0,12.776-12.8V31.4A12.788,12.788,0,0,0,89.606,18.6Z" transform="translate(612.5 463.404)" fill="#87a80d"/>
    <path id="Path_144" data-name="Path 144" d="M19.1,34.9c-.367,1.358-1.755,1.674-3.1,1.674s-2.735-.316-3.1-1.674a52.048,52.048,0,0,1-1.469-9.487c0-2.511,2.224-3.125,4.571-3.125s4.571.614,4.571,3.125A52.1,52.1,0,0,1,19.1,34.9ZM11.2,20.611a6.857,6.857,0,1,1,9.59,0,.43.43,0,0,0,.045.656,4.752,4.752,0,0,1,1.517,1.812.426.426,0,0,0,.675.135,10.286,10.286,0,1,0-14.064,0,.426.426,0,0,0,.675-.135,4.752,4.752,0,0,1,1.517-1.812.429.429,0,0,0,.045-.656ZM16,0A16,16,0,0,0,8.981,30.386a.428.428,0,0,0,.61-.451c-.17-1.108-.31-2.21-.386-3.167a.43.43,0,0,0-.191-.322,12.571,12.571,0,1,1,13.8.116c-.071,1-.219,2.185-.4,3.374a.428.428,0,0,0,.61.451A16,16,0,0,0,16,0Zm0,11.429A4.571,4.571,0,1,0,20.571,16,4.571,4.571,0,0,0,16,11.429Z" transform="translate(667 496)" fill="#fff"/>
  </g>
</svg>
