<svg id="Group_312" data-name="Group 312" xmlns="http://www.w3.org/2000/svg" width="48" height="48" viewBox="0 0 48 48">
  <circle id="Ellipse_11" data-name="Ellipse 11" cx="24" cy="24" r="24" fill="#004474" opacity="0"/>
  <path id="Path_122" data-name="Path 122" d="M86,24.207a.726.726,0,0,0-.209-.511.71.71,0,0,0-.505-.212H68.44l4.5-4.544a.729.729,0,0,0,0-1.022.709.709,0,0,0-1.011,0L66.21,23.7a.721.721,0,0,0-.155.234.727.727,0,0,0,.155.788L71.924,30.5a.71.71,0,0,0,1.011,0,.729.729,0,0,0,0-1.023l-4.5-4.544H85.286a.71.71,0,0,0,.505-.212A.726.726,0,0,0,86,24.207Z" transform="translate(-52 -0.707)" fill="#fff" fill-rule="evenodd" opacity="0"/>
  <path id="Path_166" data-name="Path 166" d="M20,25.207a.726.726,0,0,0-.209-.511.71.71,0,0,0-.5-.212H2.44l4.5-4.544a.729.729,0,0,0,0-1.022.71.71,0,0,0-1.011,0L.21,24.7a.721.721,0,0,0-.155.234.727.727,0,0,0,.155.788L5.924,31.5a.71.71,0,0,0,1.011,0,.729.729,0,0,0,0-1.023l-4.5-4.544H19.286a.71.71,0,0,0,.5-.212A.726.726,0,0,0,20,25.207Z" transform="translate(14 -0.707)" fill="#004474" fill-rule="evenodd"/>
</svg>
