<svg xmlns="http://www.w3.org/2000/svg" width="32" height="32" viewBox="0 0 32 32">
  <g id="Group_113" data-name="Group 113" transform="translate(-185 -2504)">
    <rect id="Rectangle_96" data-name="Rectangle 96" width="32" height="32" rx="8" transform="translate(185 2504)" fill="#026ba0"/>
    <path id="Icon_awesome-linkedin-in" data-name="Icon awesome-linkedin-in" d="M3.582,16H.264V5.318H3.582ZM1.921,3.861A1.93,1.93,0,1,1,3.842,1.922,1.937,1.937,0,0,1,1.921,3.861ZM16,16h-3.31V10.8c0-1.239-.025-2.829-1.725-2.829-1.725,0-1.989,1.346-1.989,2.739V16H5.659V5.318H8.841V6.775h.046A3.486,3.486,0,0,1,12.026,5.05C15.383,5.05,16,7.261,16,10.133V16Z" transform="translate(193 2511.999)" fill="#fff"/>
  </g>
</svg>
