<svg xmlns="http://www.w3.org/2000/svg" width="63.883" height="64" viewBox="0 0 63.883 64">
  <g id="Group_332" data-name="Group 332" transform="translate(-1116 -482)">
    <path id="Path_56" data-name="Path 56" d="M89.606,18.6H51.276A12.788,12.788,0,0,0,38.5,31.4V69.8A12.788,12.788,0,0,0,51.276,82.6h38.33a12.788,12.788,0,0,0,12.776-12.8V31.4A12.788,12.788,0,0,0,89.606,18.6Z" transform="translate(1077.5 463.404)" fill="#87a80d"/>
    <g id="Group_75" data-name="Group 75" transform="translate(1122.31 444.469)">
      <g id="Group_75-2" data-name="Group 75" transform="translate(5.69 64.234)">
        <path id="Path_135" data-name="Path 135" d="M337.118,194.061a15.1,15.1,0,0,1,4.644,6.677,36.116,36.116,0,0,0,9.007-1.549c0-4.955-2.055-9.3-5.14-11.73a7.4,7.4,0,0,1-7.74,2.4,7.4,7.4,0,0,1,.047.833A7.282,7.282,0,0,1,337.118,194.061Z" transform="translate(-310.569 -187.434)" fill="#fff"/>
        <path id="Path_136" data-name="Path 136" d="M19.243,193.774a7.285,7.285,0,0,1-.819-3.367,7.4,7.4,0,0,1,.047-.831,7.4,7.4,0,0,1-7.642-2.429c-3.085,2.431-5.14,6.775-5.14,11.73a33.769,33.769,0,0,0,8.917,1.554A15.1,15.1,0,0,1,19.243,193.774Z" transform="translate(-5.69 -187.147)" fill="#fff"/>
      </g>
      <path id="Path_137" data-name="Path 137" d="M142.341,298.345c0-4.955-2.055-9.3-5.14-11.73a7.394,7.394,0,0,1-11.4,0c-3.085,2.431-5.14,6.775-5.14,11.73a34.83,34.83,0,0,0,10.742,1.6A37.032,37.032,0,0,0,142.341,298.345Z" transform="translate(-105.757 -214.413)" fill="#fff"/>
      <circle id="Ellipse_12" data-name="Ellipse 12" cx="5.995" cy="5.995" r="5.995" transform="translate(19.746 61.499)" fill="#fff"/>
      <path id="Path_138" data-name="Path 138" d="M303.339,53.844a6,6,0,0,0-5.8,7.515,7.341,7.341,0,0,1,3.389,3.969,6,6,0,1,0,2.412-11.484Z" transform="translate(-268.29 -0.288)" fill="#fff"/>
      <path id="Path_139" data-name="Path 139" d="M77.985,61.044a5.994,5.994,0,1,0-3.436,3.992A7.34,7.34,0,0,1,77.985,61.044Z" transform="translate(-55.652)" fill="#fff"/>
    </g>
  </g>
</svg>
