<svg xmlns="http://www.w3.org/2000/svg" width="46.04" height="46.124" viewBox="0 0 46.04 46.124">
  <g id="Group_74" data-name="Group 74" transform="translate(-129 -1853)">
    <path id="Path_111" data-name="Path 111" d="M75.332,18.6H47.708A9.216,9.216,0,0,0,38.5,27.821V55.5a9.216,9.216,0,0,0,9.208,9.225H75.332A9.216,9.216,0,0,0,84.54,55.5V27.821A9.216,9.216,0,0,0,75.332,18.6Z" transform="translate(90.5 1834.404)" fill="#87a80d"/>
    <path id="Path_130" data-name="Path 130" d="M25.485,13.947v1.374l6.582-3.8c7.815-4.511,14.9,7.419,6.938,12.02L26.6,30.7a8.048,8.048,0,0,1-1.788.774c-2.772,5.869-13.2,4.528-13.2-3.206V13.948c0-9.022,13.874-9.2,13.874,0Zm0,7.1v7.217l-.006.283,3.254-1.879-3.247-5.621Zm.831-3.41L30.83,25.46l1.526-.881-4.514-7.817-1.526.879Zm3.624-2.092,4.516,7.819,3.338-1.928c5.137-2.966.625-10.788-4.515-7.82ZM14.033,21.988h9.031V20.227H14.033Zm9.031,2.423H14.033v3.856c0,5.808,9.031,6.07,9.031,0ZM14.033,17.8h9.031V13.947c0-5.933-9.031-5.936-9.031,0Z" transform="translate(124.889 1855.385)" fill="#fff" stroke="#87a80d" stroke-width="0.5"/>
  </g>
</svg>
