<svg xmlns="http://www.w3.org/2000/svg" width="46.04" height="46.124" viewBox="0 0 46.04 46.124">
  <g id="Group_309" data-name="Group 309" transform="translate(-1002 -1853)">
    <path id="Path_114" data-name="Path 114" d="M75.332,18.6H47.708A9.216,9.216,0,0,0,38.5,27.821V55.5a9.216,9.216,0,0,0,9.208,9.225H75.332A9.216,9.216,0,0,0,84.54,55.5V27.821A9.216,9.216,0,0,0,75.332,18.6Z" transform="translate(963.5 1834.404)" fill="#87a80d"/>
    <path id="Path_134" data-name="Path 134" d="M8.174,22.117v5.458H23.352A8.978,8.978,0,0,0,25.866,29.2L27,29.69l1.288-.491a8.983,8.983,0,0,0,5.519-8.309V15.984l-6.776-3.618-3.557,1.993a9.6,9.6,0,0,0-2.085-1.165,6.316,6.316,0,1,0-7.206,0,9.628,9.628,0,0,0-6.009,8.922Zm18.887-7.635,4.906,2.637V20.89a7.144,7.144,0,0,1-4.415,6.592L27,27.7l-.429-.184a7.175,7.175,0,0,1-4.293-6.562V17.088ZM13.295,8.012a4.476,4.476,0,1,1,1.322,3.176,4.476,4.476,0,0,1-1.322-3.176ZM17.8,14.329a7.786,7.786,0,0,1,3.863,1.012l-1.226.675v4.936a8.983,8.983,0,0,0,1.38,4.783h-11.8V22.116A7.788,7.788,0,0,1,17.8,14.329Z" transform="translate(1003.825 1860.31)" fill="#fff"/>
  </g>
</svg>
