<svg xmlns="http://www.w3.org/2000/svg" width="48" height="48" viewBox="0 0 48 48">
  <g id="Group_224" data-name="Group 224" transform="translate(-136 -1341)">
    <rect id="Rectangle_179" data-name="Rectangle 179" width="48" height="48" rx="8" transform="translate(136 1341)" fill="#87a80d"/>
    <g id="Group_223" data-name="Group 223" transform="translate(148 1353.75)">
      <g id="Path_155" data-name="Path 155" transform="translate(0 4.35)" fill="none">
        <path d="M4.5,0H18.9a4.5,4.5,0,0,1,4.5,4.5v9.9a4.5,4.5,0,0,1-4.5,4.5H4.5A4.5,4.5,0,0,1,0,14.4V4.5A4.5,4.5,0,0,1,4.5,0Z" stroke="none"/>
        <path d="M 4.5 2 C 3.121500015258789 2 2 3.121500968933105 2 4.500000953674316 L 2 14.40000057220459 C 2 15.7785005569458 3.121500015258789 16.90000152587891 4.5 16.90000152587891 L 18.90000152587891 16.90000152587891 C 20.27850151062012 16.90000152587891 21.40000152587891 15.7785005569458 21.40000152587891 14.40000057220459 L 21.40000152587891 4.500000953674316 C 21.40000152587891 3.121500968933105 20.27850151062012 2 18.90000152587891 2 L 4.5 2 M 4.5 0 L 18.90000152587891 0 C 21.38528060913086 0 23.40000152587891 2.014720916748047 23.40000152587891 4.500000953674316 L 23.40000152587891 14.40000057220459 C 23.40000152587891 16.88528060913086 21.38528060913086 18.90000152587891 18.90000152587891 18.90000152587891 L 4.5 18.90000152587891 C 2.014720916748047 18.90000152587891 0 16.88528060913086 0 14.40000057220459 L 0 4.500000953674316 C 0 2.014720916748047 2.014720916748047 0 4.5 0 Z" stroke="none" fill="#fff"/>
      </g>
      <g id="Path_154" data-name="Path 154" transform="translate(0 4.35)" fill="none">
        <path d="M4.5,0H18.9a4.5,4.5,0,0,1,4.5,4.5V9.9H0V4.5A4.5,4.5,0,0,1,4.5,0Z" stroke="none"/>
        <path d="M 4.5 2.000000476837158 C 3.121500015258789 2.000000476837158 2 3.121500492095947 2 4.500000476837158 L 2 7.90000057220459 L 21.40000152587891 7.90000057220459 L 21.40000152587891 4.500000476837158 C 21.40000152587891 3.121500492095947 20.27850151062012 2.000000476837158 18.90000152587891 2.000000476837158 L 4.5 2.000000476837158 M 4.5 0 L 18.90000152587891 0 C 21.38528060913086 0 23.40000152587891 2.014720439910889 23.40000152587891 4.500000476837158 L 23.40000152587891 9.90000057220459 L 0 9.90000057220459 L 0 4.500000476837158 C 0 2.014720439910889 2.014720916748047 0 4.5 0 Z" stroke="none" fill="#fff"/>
      </g>
      <g id="Path_153" data-name="Path 153" transform="translate(5.4)" fill="none">
        <path d="M4.5,0H8.1a4.5,4.5,0,0,1,4.5,4.5v.9H0V4.5A4.5,4.5,0,0,1,4.5,0Z" stroke="none"/>
        <path d="M 4.5 2 C 3.515933990478516 2 2.662873268127441 2.571450471878052 2.255242347717285 3.400000095367432 L 10.34475803375244 3.400000095367432 C 9.937127113342285 2.571450471878052 9.084066390991211 2 8.100000381469727 2 L 4.5 2 M 4.5 0 L 8.100000381469727 0 C 10.585280418396 0 12.60000038146973 2.01471996307373 12.60000038146973 4.5 L 12.60000038146973 5.400000095367432 L 0 5.400000095367432 L 0 4.5 C 0 2.01471996307373 2.01471996307373 0 4.5 0 Z" stroke="none" fill="#fff"/>
      </g>
      <line id="Line_12" data-name="Line 12" y2="2.7" transform="translate(12.15 13.8)" fill="none" stroke="#fff" stroke-width="2"/>
    </g>
  </g>
</svg>
