<svg xmlns="http://www.w3.org/2000/svg" width="63.883" height="64" viewBox="0 0 63.883 64">
  <g id="Group_331" data-name="Group 331" transform="translate(-884 -482)">
    <path id="Path_56" data-name="Path 56" d="M89.606,18.6H51.276A12.788,12.788,0,0,0,38.5,31.4V69.8A12.788,12.788,0,0,0,51.276,82.6h38.33a12.788,12.788,0,0,0,12.776-12.8V31.4A12.788,12.788,0,0,0,89.606,18.6Z" transform="translate(845.5 463.404)" fill="#87a80d"/>
    <g id="Group_145" data-name="Group 145" transform="translate(-6.321 -2840.494)">
      <path id="Icon_awesome-edit" data-name="Icon awesome-edit" d="M27.429,24.658v7.271H4.571V9.072H20.986a.878.878,0,0,0,.607-.25L24.45,5.965A.857.857,0,0,0,23.843,4.5H3.429A3.429,3.429,0,0,0,0,7.929V33.072A3.429,3.429,0,0,0,3.429,36.5H28.571A3.429,3.429,0,0,0,32,33.072V21.8a.859.859,0,0,0-1.464-.607l-2.857,2.857A.878.878,0,0,0,27.429,24.658Z" transform="translate(906.321 3334.993)" fill="#fff"/>
      <path id="Icon_awesome-edit-2" data-name="Icon awesome-edit" d="M23.256,4.119l4.463,4.463a.484.484,0,0,1,0,.683L16.912,20.071l-4.592.51a.962.962,0,0,1-1.064-1.064l.51-4.592L22.573,4.119A.484.484,0,0,1,23.256,4.119Zm8.016-1.133L28.857.571a1.935,1.935,0,0,0-2.731,0L24.374,2.323a.484.484,0,0,0,0,.683l4.463,4.463a.484.484,0,0,0,.683,0l1.752-1.752a1.935,1.935,0,0,0,0-2.731Z" transform="translate(911.063 3339.487)" fill="#fff"/>
    </g>
  </g>
</svg>
