<svg xmlns="http://www.w3.org/2000/svg" width="32" height="32" viewBox="0 0 32 32">
  <g id="Group_116" data-name="Group 116" transform="translate(-261 -2504)">
    <rect id="Rectangle_98" data-name="Rectangle 98" width="32" height="32" rx="8" transform="translate(261 2504)" fill="#55acee"/>
    <path id="Icon_ionic-md-call" data-name="Icon ionic-md-call" d="M19.611,15.611a10.433,10.433,0,0,1-3.155-.489.831.831,0,0,0-.889.222L13.611,17.3a13.367,13.367,0,0,1-5.867-5.867L9.7,9.478a.926.926,0,0,0,.222-.889,9.667,9.667,0,0,1-.533-3.2A.892.892,0,0,0,8.5,4.5H5.389a.892.892,0,0,0-.889.889A15.1,15.1,0,0,0,19.611,20.5a.892.892,0,0,0,.889-.889V16.5A.892.892,0,0,0,19.611,15.611Z" transform="translate(264.5 2507.5)" fill="#fff"/>
  </g>
</svg>
