<svg xmlns="http://www.w3.org/2000/svg" width="12" height="16" viewBox="0 0 12 16">
  <path id="Path_126" data-name="Path 126" d="M3.54.368a1.785,1.785,0,0,1,1.823,1.06l.8,1.633A2.322,2.322,0,0,1,5.678,5.7,6.691,6.691,0,0,0,4.653,6.942a.137.137,0,0,0-.013.093,7.489,7.489,0,0,0,1.7,3.195.267.267,0,0,0,.132.082.262.262,0,0,0,.154-.006l1.571-.5a2.027,2.027,0,0,1,1.3.02,2.081,2.081,0,0,1,1.032.8l1.137,1.694A1.826,1.826,0,0,1,11.886,14a3.975,3.975,0,0,1-1.362,1.822,3.4,3.4,0,0,1-3.207.25,9.356,9.356,0,0,1-4.21-3.643A20.233,20.233,0,0,1,.284,6.216C-.29,4.063.056,2.613.871,1.68A4.31,4.31,0,0,1,3.54.368ZM4.479,1.88a.8.8,0,0,0-.8-.51,3.344,3.344,0,0,0-2.067.985c-.524.6-.887,1.658-.371,3.595a19.214,19.214,0,0,0,2.676,5.9,8.4,8.4,0,0,0,3.725,3.272,2.448,2.448,0,0,0,2.334-.132,2.977,2.977,0,0,0,1-1.362.8.8,0,0,0-.126-.73L9.707,11.2a1.09,1.09,0,0,0-.54-.422,1.061,1.061,0,0,0-.679-.01l-1.571.5a1.236,1.236,0,0,1-1.332-.385A8.473,8.473,0,0,1,3.668,7.219,1.169,1.169,0,0,1,3.8,6.425,7.67,7.67,0,0,1,4.988,4.974a1.292,1.292,0,0,0,.288-1.46l-.8-1.632Z" transform="translate(0 -0.352)" fill="#fff" opacity="0.75"/>
</svg>
