<svg xmlns="http://www.w3.org/2000/svg" width="16" height="18" viewBox="0 0 16 18">
  <path id="Path_127" data-name="Path 127" d="M11.428,43.227a3.348,3.348,0,0,1-1,2.386,3.467,3.467,0,0,1-4.848,0,3.338,3.338,0,0,1,0-4.773,3.467,3.467,0,0,1,4.848,0A3.349,3.349,0,0,1,11.428,43.227Zm-1.143,0a2.232,2.232,0,0,0-.669-1.591,2.311,2.311,0,0,0-3.232,0,2.225,2.225,0,0,0,0,3.182,2.311,2.311,0,0,0,3.232,0A2.232,2.232,0,0,0,10.286,43.227ZM13.657,48.8a7.794,7.794,0,0,0,0-11.142,8.007,8.007,0,0,0-2.6-1.708,8.115,8.115,0,0,0-6.123,0,8.007,8.007,0,0,0-2.6,1.708,7.794,7.794,0,0,0,0,11.142l1.738,1.686L6.416,52.72l.152.133a2.306,2.306,0,0,0,3.017-.133l2.783-2.666ZM3.149,38.452a6.867,6.867,0,0,1,2.226-1.465,6.96,6.96,0,0,1,5.251,0,6.866,6.866,0,0,1,2.226,1.465,6.683,6.683,0,0,1,.2,9.348l-.2.207-1.51,1.467L8.793,51.914,8.686,52a1.154,1.154,0,0,1-1.371,0l-.106-.09L3.8,48.646l-.654-.638-.2-.206a6.683,6.683,0,0,1,.2-9.349Z" transform="translate(0 -35.352)" fill="#fff" opacity="0.75"/>
</svg>
